<?xml version="1.0" encoding="utf-8"?>
<svg id="master-artboard" viewBox="0 0 1096 780" version="1.1" xmlns="http://www.w3.org/2000/svg" x="0px" y="0px" style="enable-background:new 0 0 1096 780;" width="1096px" height="780px"><defs><linearGradient id="gradient-0" gradientUnits="userSpaceOnUse" x1="548" y1="0" x2="548" y2="780">
                <stop offset="0" style="stop-color: #ffffff"/>
                <stop offset="1" style="stop-color: #cccccc"/>
              </linearGradient></defs>

<path d="M 0 0 H 1096 V 780 H 0 V 0 Z" class="st0" style="fill: rgb(255, 255, 255); fill-opacity: 0;" transform="matrix(0.9001784920692445, 0, 0, 0.9486495256423951, 66.74694272257511, 22.608551151361524)"/>





<g transform="matrix(-0.019325353635864375, 2.7551507940608473, -2.7551507940608473, -0.019325353635864375, 2151.5335144725063, -1547.4171194948956)">
	<path class="st6" d="M784.6,712.7H653.9c-3.2,0-5.8-2.6-5.8-5.8v-35.3c0-3.2,2.6-5.8,5.8-5.8h130.7c3.2,0,5.8,2.6,5.8,5.8v35.3&#10;&#9;&#9;C790.5,710.1,787.8,712.7,784.6,712.7z" style="fill: rgb(102, 102, 102);"/>
	<path class="st6" d="M784.6,607.3H653.9c-3.2,0-5.8-2.6-5.8-5.8v-35.3c0-3.2,2.6-5.8,5.8-5.8h130.7c3.2,0,5.8,2.6,5.8,5.8v35.3&#10;&#9;&#9;C790.5,604.7,787.8,607.3,784.6,607.3z" style="fill: rgb(102, 102, 102);"/>
	<path d="M 659.099976 737 H 675.099976 V 743.4 H 659.099976 V 737 Z" class="st4" style="fill: rgb(179, 179, 179);"/>
	<path d="M 763.5 737 H 779.5 V 743.4 H 763.5 V 737 Z" class="st4" style="fill: rgb(179, 179, 179);"/>
	<path class="st4" d="M762,485.2h-85.7c-11.7,0-21-10-20-21.7l1.1-14.2c0.8-10.4,9.5-18.5,20-18.5h83.4c10.5,0,19.2,8,20,18.5&#10;&#9;&#9;l1.1,14.2C783,475.2,773.8,485.2,762,485.2z" style="fill: rgb(179, 179, 179);"/>
	<path class="st4" d="M760,509h-81.6v-54.5l2.9-35.5c0.1-1.7,1.4-3.1,3.1-3.5c4.8-0.9,15.9-2.5,34.7-2.5c18.8,0,29.9,1.6,34.7,2.5&#10;&#9;&#9;c1.7,0.3,3,1.7,3.1,3.5l2.9,36.6V509z" style="fill: rgb(179, 179, 179);"/>
	<path class="st1" d="M770.6,537.2H667.7v-68.7l3.7-44.7c0.2-2.2,1.8-4,4-4.4c6.1-1.1,20.1-3.1,43.8-3.1c23.8,0,37.7,2,43.8,3.1&#10;&#9;&#9;c2.2,0.4,3.8,2.2,4,4.4l3.7,46.2V537.2z" style="fill: rgb(204, 204, 204);"/>
	<path class="st14" d="M767.4,426.2L767.4,426.2c1,0,1.9-0.9,1.8-1.9c-0.1-1.9-0.4-4.8-1.5-7.3c-0.2-0.5-0.6-0.8-1-1&#10;&#9;&#9;c-3.2-1.2-17.2-5.8-46.1-5.8H718c-28.8,0-42.9,4.6-46.1,5.8c-0.5,0.2-0.8,0.5-1,1c-1,2.5-1.4,5.5-1.5,7.3c-0.1,1,0.8,1.9,1.8,1.9&#10;&#9;&#9;l0,0" style="fill: none; stroke: rgb(128, 128, 128); stroke-width: 2; stroke-linecap: round; stroke-miterlimit: 10;"/>
	<path d="M 686.299988 410.899994 L 686.299988 418.100006" class="st14" style="fill: none; stroke: rgb(128, 128, 128); stroke-width: 2; stroke-linecap: round; stroke-miterlimit: 10;"/>
	<path d="M 751.900024 410.899994 L 751.900024 418.100006" class="st14" style="fill: none; stroke: rgb(128, 128, 128); stroke-width: 2; stroke-linecap: round; stroke-miterlimit: 10;"/>
	<path class="st2" d="M669.5,479.1c-0.1-0.6,0.3-1.1,0.8-1.3c4.3-1.5,22.9-7.6,48.9-7.6c25.6,0,42.4,5.9,46.6,7.5&#10;&#9;&#9;c0.6,0.2,0.9,0.9,0.8,1.5l-0.8,3c-0.2,0.7-0.9,1.1-1.6,0.9c-3.9-1.2-17.6-4.5-45.1-4.5c-27.7,0-43.3,3.4-47.8,4.5&#10;&#9;&#9;c-0.7,0.2-1.5-0.3-1.6-1.1L669.5,479.1z" style="fill: rgb(128, 128, 128);"/>
	<g>
		<path class="st2" d="M681.5,470c0,0,1-0.5,2.9-1.3c0.9-0.4,2.1-0.8,3.4-1.3c1.3-0.5,2.9-0.9,4.5-1.4c0.8-0.2,1.7-0.5,2.6-0.7&#10;&#9;&#9;&#9;c0.9-0.2,1.9-0.4,2.8-0.6c1-0.2,2-0.4,3-0.6c1-0.2,2.1-0.3,3.2-0.5c2.2-0.3,4.4-0.6,6.7-0.7c2.3-0.1,4.6-0.2,6.9-0.3&#10;&#9;&#9;&#9;c1.2,0,2.3,0.1,3.5,0.1c1.1,0,2.3,0.1,3.5,0.2c2.3,0.1,4.5,0.4,6.7,0.7c2.2,0.3,4.2,0.7,6.2,1.1c2,0.4,3.8,0.9,5.5,1.3&#10;&#9;&#9;&#9;c1.7,0.4,3.2,0.9,4.5,1.4c1.3,0.4,2.5,0.9,3.4,1.3c0.9,0.4,1.7,0.7,2.2,1c0.5,0.2,0.8,0.4,0.8,0.4l0,0c0.1,0,0.1,0.2,0.1,0.3&#10;&#9;&#9;&#9;c0,0.1-0.1,0.1-0.2,0.1c0,0-1.1-0.3-3.1-0.6c-1.9-0.4-4.7-0.8-8.1-1.3c-3.4-0.5-7.3-1-11.6-1.3c-2.1-0.2-4.3-0.3-6.5-0.4&#10;&#9;&#9;&#9;c-2.2-0.1-4.5-0.1-6.8-0.1c-2.3,0-4.5,0.1-6.8,0.1c-1.1,0.1-2.2,0.1-3.3,0.2c-1.1,0.1-2.2,0.2-3.2,0.2c-2.1,0.2-4.2,0.4-6.1,0.6&#10;&#9;&#9;&#9;c-1.9,0.2-3.8,0.5-5.4,0.7c-3.4,0.5-6.2,0.9-8.1,1.3c-2,0.4-3.1,0.6-3.1,0.6c-0.1,0-0.2,0-0.2-0.1&#10;&#9;&#9;&#9;C681.3,470.2,681.4,470.1,681.5,470L681.5,470z" style="fill: rgb(128, 128, 128);"/>
	</g>
	<path class="st2" d="M770.6,516h3.7c1.3,0,2.4-1.1,2.4-2.4v-27h-6.1V516z" style="fill: rgb(128, 128, 128);"/>
	<path class="st2" d="M667.7,516h-3.7c-1.3,0-2.4-1.1-2.4-2.4v-27h6.1V516z" style="fill: rgb(128, 128, 128);"/>
	<path d="M 671.900024 485.200012 H 676.400024 V 491.900012 H 671.900024 V 485.200012 Z" class="st4" style="fill: rgb(179, 179, 179);"/>
	<path d="M 761.900024 485.200012 H 766.400024 V 491.900012 H 761.900024 V 485.200012 Z" class="st4" style="fill: rgb(179, 179, 179);"/>
	<path class="st4" d="M724,485.3v2.6c0,0.5-0.4,1-1,1h-7.7c-0.5,0-1-0.4-1-1v-2.6c0-0.5,0.4-1,1-1h7.7&#10;&#9;&#9;C723.5,484.4,724,484.8,724,485.3z" style="fill: rgb(179, 179, 179);"/>
	<path class="st4" d="M748.8,485.3v2.6c0,0.5-0.4,1-1,1h-7.7c-0.5,0-1-0.4-1-1v-2.6c0-0.5,0.4-1,1-1h7.7&#10;&#9;&#9;C748.4,484.4,748.8,484.8,748.8,485.3z" style="fill: rgb(179, 179, 179);"/>
	<path class="st4" d="M699.1,485.3v2.6c0,0.5-0.4,1-1,1h-7.7c-0.5,0-1-0.4-1-1v-2.6c0-0.5,0.4-1,1-1h7.7&#10;&#9;&#9;C698.7,484.4,699.1,484.8,699.1,485.3z" style="fill: rgb(179, 179, 179);"/>
	<g>
		<path class="st2" d="M668.9,464.7c0,0,0.1-0.4,0.3-1.2c0.1-0.4,0.2-0.9,0.3-1.5c0.2-0.6,0.2-1.2,0.6-2c0.4-0.7,1-1.4,1.8-1.8&#10;&#9;&#9;&#9;c0.4-0.2,0.9-0.4,1.5-0.4c0.5,0,1,0,1.5-0.1c2.1-0.1,4.5-0.1,7.1-0.2c5.2-0.1,11.2-0.2,17.7-0.3c6.5,0,13.4-0.1,20.3-0.1&#10;&#9;&#9;&#9;c6.9,0,13.8,0.1,20.3,0.1c6.5,0,12.5,0.2,17.7,0.3c2.6,0,4.9,0.1,7.1,0.2c1.2,0.1,2.1,0.7,2.8,1.4c0.7,0.7,0.9,1.6,1,2.4&#10;&#9;&#9;&#9;c0.5,3,0.8,4.7,0.8,4.7c0,0,0,0.1,0,0.1c0,0-0.1,0-0.1,0c0,0-0.4-1.7-1-4.6c-0.1-0.7-0.4-1.6-1-2.2c-0.6-0.7-1.5-1.2-2.6-1.2&#10;&#9;&#9;&#9;c-2.1,0-4.5,0-7.1,0c-10.4,0-24.2,0-38,0c-13.8,0-27.6,0-38,0c-2.6,0-5,0-7.1,0c-0.5,0-1,0-1.5,0c-0.5,0-0.9,0.2-1.3,0.3&#10;&#9;&#9;&#9;c-0.8,0.4-1.4,1-1.8,1.7c-0.4,0.7-0.4,1.3-0.6,1.9c-0.2,0.6-0.3,1-0.4,1.4C669.1,464.3,669,464.7,668.9,464.7&#10;&#9;&#9;&#9;C669,464.7,668.9,464.7,668.9,464.7C668.9,464.7,668.9,464.7,668.9,464.7z" style="fill: rgb(128, 128, 128);"/>
	</g>
	<path d="M 663.700012 514 H 774.700012 V 522.7 H 663.700012 V 514 Z" class="st6" style="fill: rgb(102, 102, 102);"/>
	<path class="st1" d="M755.4,535.3H683c-1.9,0-3.5-1.6-3.3-3.6l2.8-36c0.1-1.7,1.6-3.1,3.3-3.1h66.8c1.7,0,3.2,1.3,3.3,3.1l2.8,36&#10;&#9;&#9;C758.9,533.7,757.3,535.3,755.4,535.3z" style="fill: rgb(204, 204, 204);"/>
	<path class="st4" d="M679.7,531.8l2.8-36c0.1-1.1,0.8-2.1,1.7-2.6c-1.2,0.6-2.8,2-4.5,5.4c-2.4,4.7-5.8,15.2-7.4,20.2&#10;&#9;&#9;c-0.6,1.9-0.5,3.9,0.3,5.6c1.8,4,5.5,10.9,10.5,10.9C681.1,535.3,679.6,533.7,679.7,531.8z" style="fill: rgb(179, 179, 179);"/>
	<path class="st4" d="M758.7,531.8l-2.8-36c-0.1-1.1-0.8-2.1-1.7-2.6c1.2,0.6,2.8,2,4.5,5.4c2.4,4.7,5.8,15.2,7.4,20.2&#10;&#9;&#9;c0.6,1.9,0.5,3.9-0.3,5.6c-1.8,4-5.5,10.9-10.5,10.9C757.3,535.3,758.9,533.7,758.7,531.8z" style="fill: rgb(179, 179, 179);"/>
	<path class="st4" d="M661.7,534.8l7.9-2.3c0.5-0.2,0.9-0.6,0.9-1.2v-7.4c0-0.7-0.6-1.2-1.2-1.2h-6.5c-0.6,0-1.1,0.5-1.2,1.1&#10;&#9;&#9;l-1.4,9.7C660,534.3,660.8,535.1,661.7,534.8z" style="fill: rgb(179, 179, 179);"/>
	<path class="st4" d="M776.3,534.8l-7.9-2.3c-0.5-0.2-0.9-0.6-0.9-1.2v-7.4c0-0.7,0.6-1.2,1.2-1.2h6.5c0.6,0,1.1,0.5,1.2,1.1&#10;&#9;&#9;l1.4,9.7C778,534.3,777.2,535.1,776.3,534.8z" style="fill: rgb(179, 179, 179);"/>
	<path d="M 768.9000244140625 530.4000244140625 L 667.2000122070312 530.4000244140625 L 658.2000122070312 537.7999877929688 L 777.9000244140625 537.7999877929688 Z" class="st2" style="fill: rgb(128, 128, 128);"/>
	<g>
		<path class="st1" d="M786.6,546.3H651.7c-2.2,0-3.9-1.8-3.9-3.9c0-2.2,1.8-3.9,3.9-3.9h134.9c2.2,0,3.9,1.8,3.9,3.9&#10;&#9;&#9;&#9;C790.5,544.6,788.7,546.3,786.6,546.3z" style="fill: rgb(204, 204, 204);"/>
	</g>
	<g>
		<path class="st1" d="M786.6,738.9H651.7c-2.2,0-3.9-1.8-3.9-3.9c0-2.2,1.8-3.9,3.9-3.9h134.9c2.2,0,3.9,1.8,3.9,3.9&#10;&#9;&#9;&#9;C790.5,737.2,788.7,738.9,786.6,738.9z" style="fill: rgb(204, 204, 204);"/>
	</g>
	<path d="M 651.5 542.400024 H 786.800003 V 728.100021 H 651.5 V 542.400024 Z" class="st4" style="fill: rgb(179, 179, 179);"/>
	<path d="M 651.5 728.099976 H 786.800003 V 733.999976 H 651.5 V 728.099976 Z" class="st4" style="fill: rgb(179, 179, 179);"/>
	<path d="M 747.5 733 L 776.700012 733" class="st15" style="fill: none; stroke: rgb(128, 128, 128); stroke-width: 4; stroke-linecap: round; stroke-miterlimit: 10;"/>
	<path d="M 658.700012 733 L 687.900024 733" class="st15" style="fill: none; stroke: rgb(128, 128, 128); stroke-width: 4; stroke-linecap: round; stroke-miterlimit: 10;"/>
	<path class="st4" d="M740.6,496.3h-42.7c-2.1,0-3.8,1.7-3.9,3.8l-0.8,22.1c-0.1,2.2,1.7,4.1,3.9,4.1h44.3c2.2,0,4-1.8,3.9-4.1&#10;&#9;&#9;l-0.8-22.1C744.5,497.9,742.7,496.3,740.6,496.3z" style="fill: rgb(179, 179, 179);"/>
	<path d="M 698 501.299988 L 740.200012 501.299988" class="st16" style="fill: none; stroke: rgb(128, 128, 128); stroke-linecap: round; stroke-miterlimit: 10;"/>
	<path d="M 698 505.899994 L 740.200012 505.899994" class="st16" style="fill: none; stroke: rgb(128, 128, 128); stroke-linecap: round; stroke-miterlimit: 10;"/>
	<path d="M 698 510.5 L 740.200012 510.5" class="st16" style="fill: none; stroke: rgb(128, 128, 128); stroke-linecap: round; stroke-miterlimit: 10;"/>
	<path d="M 698 515.099976 L 740.200012 515.099976" class="st16" style="fill: none; stroke: rgb(128, 128, 128); stroke-linecap: round; stroke-miterlimit: 10;"/>
	<path d="M 698 519.799988 L 740.200012 519.799988" class="st16" style="fill: none; stroke: rgb(128, 128, 128); stroke-linecap: round; stroke-miterlimit: 10;"/>
	<path class="st1" d="M667.7,492.9l-4.6-2.7c-0.7-0.4-1.6-0.5-2.4-0.2l-6.4,2.4c-1.9,0.7-3.9-0.7-3.9-2.7v-1.2c0-1,0.5-1.9,1.4-2.5&#10;&#9;&#9;l5.9-3.5c0.9-0.5,1.9-0.5,2.8-0.1l2.8,1.5c0.4,0.2,0.9,0.3,1.3,0.3h3.2l1.3,3.4c0.3,0.7,0.3,1.5,0,2.2L667.7,492.9z" style="fill: rgb(204, 204, 204);"/>
	<path class="st1" d="M770.7,492.9l4.6-2.7c0.7-0.4,1.6-0.5,2.4-0.2l6.4,2.4c1.9,0.7,3.9-0.7,3.9-2.7v-1.2c0-1-0.5-1.9-1.4-2.5&#10;&#9;&#9;l-5.9-3.5c-0.9-0.5-1.9-0.5-2.8-0.1l-2.8,1.5c-0.4,0.2-0.9,0.3-1.3,0.3h-3.2l-1.3,3.4c-0.3,0.7-0.3,1.5,0,2.2L770.7,492.9z" style="fill: rgb(204, 204, 204);"/>
</g>
</svg>