<svg height='200' width='200'  fill="#ffffff" xmlns="http://www.w3.org/2000/svg" xmlns:xlink="http://www.w3.org/1999/xlink" version="1.1" x="0px" y="0px" viewBox="0 0 112 79.333" enable-background="new 0 0 112 79.333" xml:space="preserve"><path d="M111.991,38.169c-0.016-0.57-0.188-1.131-0.508-1.609L94.241,10.69c-0.568-0.845-1.525-1.357-2.547-1.357H79.333H68.394  H68.39c-1.687,0-3.058,1.371-3.058,3.062v49.881c0,1.686,1.371,3.057,3.062,3.057h6.271h0.002c0,7.732,6.268,14,14,14  c7.731,0,13.998-6.268,14-14h6.271c1.688,0,3.062-1.371,3.062-3.061V38.257C111.999,38.228,111.993,38.198,111.991,38.169z   M79.333,37.333V18.665h11.809l12.445,18.668H79.333z M88.665,72.333c-3.858,0-7-3.141-7-7s3.142-7,7-7c3.859,0,7,3.141,7,7  S92.524,72.333,88.665,72.333z M56.601,0H4.064C1.819,0,0,1.819,0,4.064v57.204c0,2.244,1.819,4.064,4.063,4.064h9.935  c0,7.732,6.268,14,14,14s14-6.268,14-14h14.603c2.244,0,4.063-1.82,4.063-4.064V4.063C60.665,1.819,58.847,0,56.601,0z   M27.999,72.333c-3.858,0-7-3.141-7-7s3.142-7,7-7c3.859,0,7,3.141,7,7S31.858,72.333,27.999,72.333z"></path></svg>